<svg width="126" height="26" viewBox="0 0 126 26" fill="none" xmlns="http://www.w3.org/2000/svg">
<path d="M0.0693359 13.0303C0.0693359 10.9229 0.568685 9.22591 1.56738 7.93945C2.57454 6.65299 3.92871 6.00977 5.62988 6.00977C7.13639 6.00977 8.30859 6.52604 9.14648 7.55859L9.29883 6.26367H12.625V19.543C12.625 20.7448 12.3499 21.79 11.7998 22.6787C11.2581 23.5674 10.4922 24.2445 9.50195 24.71C8.51172 25.1755 7.35221 25.4082 6.02344 25.4082C5.01628 25.4082 4.03451 25.2051 3.07812 24.7988C2.12174 24.401 1.39811 23.8848 0.907227 23.25L2.53223 21.0156C3.44629 22.0397 4.55501 22.5518 5.8584 22.5518C6.83171 22.5518 7.58919 22.2894 8.13086 21.7646C8.67253 21.2484 8.94336 20.512 8.94336 19.5557V18.8193C8.09701 19.7757 6.98405 20.2539 5.60449 20.2539C3.9541 20.2539 2.61686 19.6107 1.59277 18.3242C0.577148 17.0293 0.0693359 15.3154 0.0693359 13.1826V13.0303ZM3.73828 13.2969C3.73828 14.541 3.98796 15.5186 4.4873 16.2295C4.98665 16.932 5.6722 17.2832 6.54395 17.2832C7.66113 17.2832 8.46094 16.8643 8.94336 16.0264V10.25C8.45247 9.41211 7.66113 8.99316 6.56934 8.99316C5.68913 8.99316 4.99512 9.35286 4.4873 10.0723C3.98796 10.7917 3.73828 11.8665 3.73828 13.2969ZM14.8848 13.0049C14.8848 11.6423 15.1471 10.4277 15.6719 9.36133C16.1966 8.29492 16.9499 7.46973 17.9316 6.88574C18.9219 6.30176 20.0687 6.00977 21.3721 6.00977C23.2256 6.00977 24.7363 6.57682 25.9043 7.71094C27.0807 8.84505 27.7367 10.3854 27.8721 12.332L27.8975 13.2715C27.8975 15.3789 27.3092 17.0716 26.1328 18.3496C24.9564 19.6191 23.3779 20.2539 21.3975 20.2539C19.417 20.2539 17.8343 19.6191 16.6494 18.3496C15.473 17.0801 14.8848 15.3535 14.8848 13.1699V13.0049ZM18.5537 13.2715C18.5537 14.5749 18.7992 15.5736 19.29 16.2676C19.7809 16.9531 20.4834 17.2959 21.3975 17.2959C22.2861 17.2959 22.9801 16.9574 23.4795 16.2803C23.9788 15.5947 24.2285 14.5029 24.2285 13.0049C24.2285 11.7269 23.9788 10.7367 23.4795 10.0342C22.9801 9.33171 22.2777 8.98047 21.3721 8.98047C20.4749 8.98047 19.7809 9.33171 19.29 10.0342C18.7992 10.7282 18.5537 11.8073 18.5537 13.2715ZM29.5859 13.0049C29.5859 11.6423 29.8483 10.4277 30.373 9.36133C30.8978 8.29492 31.651 7.46973 32.6328 6.88574C33.623 6.30176 34.7699 6.00977 36.0732 6.00977C37.9268 6.00977 39.4375 6.57682 40.6055 7.71094C41.7819 8.84505 42.4378 10.3854 42.5732 12.332L42.5986 13.2715C42.5986 15.3789 42.0104 17.0716 40.834 18.3496C39.6576 19.6191 38.0791 20.2539 36.0986 20.2539C34.1182 20.2539 32.5355 19.6191 31.3506 18.3496C30.1742 17.0801 29.5859 15.3535 29.5859 13.1699V13.0049ZM33.2549 13.2715C33.2549 14.5749 33.5003 15.5736 33.9912 16.2676C34.4821 16.9531 35.1846 17.2959 36.0986 17.2959C36.9873 17.2959 37.6813 16.9574 38.1807 16.2803C38.68 15.5947 38.9297 14.5029 38.9297 13.0049C38.9297 11.7269 38.68 10.7367 38.1807 10.0342C37.6813 9.33171 36.9788 8.98047 36.0732 8.98047C35.1761 8.98047 34.4821 9.33171 33.9912 10.0342C33.5003 10.7282 33.2549 11.8073 33.2549 13.2715ZM44.2871 13.0303C44.2871 10.889 44.7653 9.18359 45.7217 7.91406C46.6865 6.64453 48.0026 6.00977 49.6699 6.00977C51.0072 6.00977 52.1117 6.50911 52.9834 7.50781V0.5H56.665V20H53.3516L53.1738 18.54C52.2598 19.6826 51.0833 20.2539 49.6445 20.2539C48.028 20.2539 46.7288 19.6191 45.7471 18.3496C44.7738 17.0716 44.2871 15.2985 44.2871 13.0303ZM47.9561 13.2969C47.9561 14.5833 48.1803 15.5693 48.6289 16.2549C49.0775 16.9404 49.7292 17.2832 50.584 17.2832C51.7181 17.2832 52.5179 16.805 52.9834 15.8486V10.4277C52.5264 9.47135 51.735 8.99316 50.6094 8.99316C48.8405 8.99316 47.9561 10.4277 47.9561 13.2969ZM59.6992 18.1973C59.6992 17.6133 59.8939 17.1393 60.2832 16.7754C60.681 16.4115 61.1761 16.2295 61.7686 16.2295C62.3695 16.2295 62.8646 16.4115 63.2539 16.7754C63.6517 17.1393 63.8506 17.6133 63.8506 18.1973C63.8506 18.7728 63.6559 19.2425 63.2666 19.6064C62.8773 19.9619 62.3779 20.1396 61.7686 20.1396C61.1676 20.1396 60.6725 19.9619 60.2832 19.6064C59.8939 19.2425 59.6992 18.7728 59.6992 18.1973ZM70.4521 6.26367L70.5664 7.85059C71.5482 6.62337 72.8643 6.00977 74.5146 6.00977C75.9704 6.00977 77.0537 6.43717 77.7646 7.29199C78.4756 8.14681 78.8395 9.4248 78.8564 11.126V20H75.1875V11.2148C75.1875 10.4362 75.0182 9.87337 74.6797 9.52637C74.3411 9.1709 73.7783 8.99316 72.9912 8.99316C71.9587 8.99316 71.1842 9.43327 70.668 10.3135V20H66.999V6.26367H70.4521ZM87.9717 20.2539C85.9574 20.2539 84.3154 19.6361 83.0459 18.4004C81.7848 17.1647 81.1543 15.5186 81.1543 13.4619V13.1064C81.1543 11.7269 81.4209 10.4954 81.9541 9.41211C82.4873 8.32031 83.2406 7.48242 84.2139 6.89844C85.1956 6.30599 86.3128 6.00977 87.5654 6.00977C89.4443 6.00977 90.9212 6.60221 91.9961 7.78711C93.0794 8.97201 93.6211 10.652 93.6211 12.8271V14.3252H84.874C84.9925 15.2223 85.348 15.9417 85.9404 16.4834C86.5413 17.0251 87.2988 17.2959 88.2129 17.2959C89.6263 17.2959 90.7308 16.7839 91.5264 15.7598L93.3291 17.7783C92.779 18.557 92.0342 19.1663 91.0947 19.6064C90.1553 20.0381 89.1143 20.2539 87.9717 20.2539ZM87.5527 8.98047C86.8249 8.98047 86.2324 9.22591 85.7754 9.7168C85.3268 10.2077 85.0391 10.9102 84.9121 11.8242H90.0156V11.5322C89.9987 10.7197 89.7786 10.0934 89.3555 9.65332C88.9323 9.20475 88.3314 8.98047 87.5527 8.98047ZM107.662 15.0107L109.465 6.26367H113.007L109.503 20H106.431L103.828 11.3545L101.226 20H98.166L94.6621 6.26367H98.2041L99.9941 14.998L102.508 6.26367H105.161L107.662 15.0107ZM122.274 16.2041C122.274 15.7555 122.05 15.4043 121.602 15.1504C121.161 14.888 120.451 14.6553 119.469 14.4521C116.202 13.7666 114.568 12.3786 114.568 10.2881C114.568 9.06934 115.072 8.05371 116.079 7.24121C117.095 6.42025 118.419 6.00977 120.053 6.00977C121.796 6.00977 123.188 6.42025 124.229 7.24121C125.279 8.06217 125.804 9.12858 125.804 10.4404H122.135C122.135 9.91569 121.965 9.48405 121.627 9.14551C121.288 8.7985 120.759 8.625 120.04 8.625C119.422 8.625 118.944 8.76465 118.605 9.04395C118.267 9.32324 118.098 9.67871 118.098 10.1104C118.098 10.5166 118.288 10.8467 118.669 11.1006C119.058 11.346 119.71 11.5618 120.624 11.748C121.538 11.9258 122.308 12.1289 122.935 12.3574C124.873 13.0684 125.842 14.2998 125.842 16.0518C125.842 17.3044 125.304 18.32 124.229 19.0986C123.155 19.8688 121.767 20.2539 120.065 20.2539C118.914 20.2539 117.89 20.0508 116.993 19.6445C116.104 19.2298 115.406 18.667 114.898 17.9561C114.391 17.2367 114.137 16.4622 114.137 15.6328H117.615C117.649 16.2845 117.89 16.7839 118.339 17.1309C118.787 17.4779 119.388 17.6514 120.142 17.6514C120.844 17.6514 121.373 17.5202 121.729 17.2578C122.092 16.987 122.274 16.6357 122.274 16.2041Z" fill="#E1E1E6"/>
</svg>
